<?xml version="1.0" encoding="utf-8"?>
<!DOCTYPE svg PUBLIC "-//W3C//DTD SVG 1.1//EN" "http://www.w3.org/Graphics/SVG/1.1/DTD/svg11.dtd">
<svg version="1.1" id="Layer_1" xmlns="http://www.w3.org/2000/svg" xmlns:xlink="http://www.w3.org/1999/xlink" x="0px" y="0px"
	 width="800px" height="600px" viewBox="0 0 800 600" enable-background="new 0 0 800 600" xml:space="preserve">
<defs>
	<filter id="Adobe_OpacityMaskFilter" filterUnits="userSpaceOnUse" x="213.911" y="131.301" width="337.729" height="337.735">
		<feColorMatrix  type="matrix" values="1 0 0 0 0  0 1 0 0 0  0 0 1 0 0  0 0 0 1 0"/>
	</filter>
</defs>
<mask maskUnits="userSpaceOnUse" x="213.911" y="131.301" width="337.729" height="337.735" id="SVGID_1_">
	<g filter="url(#Adobe_OpacityMaskFilter)">
		<rect x="99.903" y="25.224" fill="#FFFFFF" width="601.099" height="209.581"/>
	</g>
</mask>
<g mask="url(#SVGID_1_)">
	<path fill="#2165AA" d="M382.775,131.301c-93.261,0-168.864,75.603-168.864,168.862c0,93.269,75.603,168.874,168.864,168.874
		c93.267,0,168.865-75.604,168.865-168.874C551.641,206.904,476.042,131.301,382.775,131.301z M382.775,451.035
		c-83.319,0-150.863-67.546-150.863-150.873c0-83.316,67.544-150.861,150.863-150.861c83.324,0,150.865,67.544,150.865,150.861
		C533.641,383.489,466.1,451.035,382.775,451.035z"/>
	<path fill="#2165AA" d="M382.775,169.444c-72.195,0-130.721,58.527-130.721,130.718c0,72.202,58.525,130.729,130.721,130.729
		c72.199,0,130.722-58.527,130.722-130.729C513.497,227.971,454.975,169.444,382.775,169.444z M382.775,412.035
		c-61.78,0-111.862-50.085-111.862-111.873c0-61.777,50.083-111.86,111.862-111.86c61.785,0,111.864,50.083,111.864,111.86
		C494.64,361.95,444.561,412.035,382.775,412.035z"/>
	<path fill="#2165AA" d="M382.775,205.875c-52.075,0-94.29,42.216-94.29,94.287c0,52.082,42.214,94.301,94.29,94.301
		c52.079,0,94.293-42.22,94.293-94.301C477.068,248.091,434.854,205.875,382.775,205.875z M382.775,376.036
		c-41.897,0-75.862-33.968-75.862-75.874c0-41.896,33.965-75.858,75.862-75.858c41.903,0,75.865,33.962,75.865,75.858
		C458.641,342.068,424.679,376.036,382.775,376.036z"/>
</g>
<text transform="matrix(1 0 0 1 203.6445 301.6504)"><tspan x="0" y="0" font-family="'MyriadPro-Regular'" font-size="74.5491">FWCF  /</tspan><tspan x="241.312" y="0" font-family="'MyriadPro-Regular'" font-size="89.9929">etc </tspan></text>
</svg>
