<?xml version="1.0" encoding="utf-8"?>
<!DOCTYPE svg PUBLIC "-//W3C//DTD SVG 1.1//EN" "http://www.w3.org/Graphics/SVG/1.1/DTD/svg11.dtd">
<svg version="1.1" id="Layer_1" xmlns="http://www.w3.org/2000/svg" xmlns:xlink="http://www.w3.org/1999/xlink" x="0px" y="0px"
	 width="612px" height="792px" viewBox="0 0 612 792" enable-background="new 0 0 612 792" xml:space="preserve">
<line fill="none" stroke="#F9ED32" x1="313.584" y1="365.506" x2="248.436" y2="295.662"/>
<line fill="none" stroke="#F9ED32" x1="324.213" y1="339.176" x2="304.647" y2="331.93"/>
<line fill="none" stroke="#F9ED32" x1="324.213" y1="339.176" x2="343.78" y2="321.301"/>
<line fill="none" stroke="#F9ED32" x1="324.213" y1="339.176" x2="329.044" y2="304.633"/>
<line fill="none" stroke="#F9ED32" x1="324.213" y1="339.176" x2="344.017" y2="346.293"/>
<line fill="none" stroke="#F9ED32" x1="324.213" y1="339.176" x2="324.184" y2="353.07"/>
<line fill="none" stroke="#F9ED32" x1="324.213" y1="339.176" x2="346.132" y2="362.476"/>
<line fill="none" stroke="#F9ED32" x1="346.132" y1="362.476" x2="330.775" y2="379.396"/>
<line fill="none" stroke="#F9ED32" x1="330.775" y1="379.396" x2="317.534" y2="392.638"/>
<line fill="none" stroke="#F9ED32" x1="329.285" y1="379.274" x2="303.95" y2="379.198"/>
<line fill="none" stroke="#F9ED32" x1="303.95" y1="379.198" x2="313.584" y2="365.506"/>
<line fill="none" stroke="#F9ED32" x1="303.95" y1="379.198" x2="276.868" y2="366.955"/>
<line fill="none" stroke="#F9ED32" x1="347.327" y1="361.741" x2="303.95" y2="379.198"/>
<line fill="none" stroke="#F9ED32" x1="386.224" y1="354.114" x2="352.293" y2="340.776"/>
<line fill="none" stroke="#F9ED32" x1="341.951" y1="345.753" x2="386.224" y2="354.114"/>
<line fill="none" stroke="#F9ED32" x1="354.166" y1="340.384" x2="382.337" y2="324.85"/>
<line fill="none" stroke="#F9ED32" x1="354.166" y1="340.384" x2="341.951" y2="345.753"/>
<line fill="none" stroke="#F9ED32" x1="341.951" y1="345.753" x2="346.132" y2="362.476"/>
<line fill="none" stroke="#F9ED32" x1="324.213" y1="339.176" x2="277.592" y2="336.279"/>
<line fill="none" stroke="#F9ED32" x1="302.638" y1="379.396" x2="284.597" y2="314.778"/>
<line fill="none" stroke="#F9ED32" x1="324.213" y1="339.176" x2="276.868" y2="366.955"/>
<line fill="none" stroke="#BE1E2D" x1="248.436" y1="295.662" x2="277.258" y2="337.465"/>
<line fill="none" stroke="#BE1E2D" x1="284.597" y1="314.779" x2="304.646" y2="331.93"/>
<line fill="none" stroke="#BE1E2D" x1="249.672" y1="294.982" x2="276.867" y2="366.956"/>
<line fill="none" stroke="#BE1E2D" x1="248.122" y1="323.716" x2="282.528" y2="314.775"/>
<line fill="none" stroke="#BE1E2D" x1="284.597" y1="314.779" x2="343.78" y2="321.3"/>
<line fill="none" stroke="#BE1E2D" x1="317.691" y1="390.869" x2="305.854" y2="414.784"/>
<line fill="none" stroke="#BE1E2D" x1="315.879" y1="392.086" x2="268.983" y2="393.19"/>
<line fill="none" stroke="#BE1E2D" x1="273.787" y1="336.277" x2="252.228" y2="338.692"/>
<line fill="none" stroke="#BE1E2D" x1="248.122" y1="323.716" x2="314.775" y2="366.155"/>
<line fill="none" stroke="#BE1E2D" x1="403.202" y1="303.425" x2="382.337" y2="324.849"/>
<line fill="none" stroke="#BE1E2D" x1="423.946" y1="319.013" x2="354.166" y2="340.384"/>
<line fill="none" stroke="#BE1E2D" x1="397.534" y1="321.465" x2="380.982" y2="323.672"/>
<line fill="none" stroke="#BE1E2D" x1="401.27" y1="369.13" x2="386.224" y2="354.114"/>
<line fill="none" stroke="#BE1E2D" x1="401.27" y1="369.13" x2="377.355" y2="381.207"/>
<line fill="none" stroke="#BE1E2D" x1="366.728" y1="407.537" x2="360.093" y2="394.009"/>
<line fill="none" stroke="#BE1E2D" x1="366.728" y1="407.537" x2="373.731" y2="355.602"/>
<line fill="none" stroke="#BE1E2D" x1="377.355" y1="381.207" x2="346.132" y2="362.476"/>
<line fill="none" stroke="#BE1E2D" x1="377.355" y1="381.207" x2="349.534" y2="384.914"/>
<line fill="none" stroke="#BE1E2D" x1="358.362" y1="393.189" x2="354.166" y2="340.383"/>
<line fill="none" stroke="#BE1E2D" x1="332.982" y1="430.155" x2="315.878" y2="390.43"/>
<line fill="none" stroke="#BE1E2D" x1="333.393" y1="428.311" x2="348.222" y2="384.801"/>
<line fill="none" stroke="#BE1E2D" x1="248.436" y1="295.662" x2="329.044" y2="304.633"/>
<line fill="none" stroke="#BE1E2D" x1="248.436" y1="295.662" x2="284.598" y2="314.779"/>
<line fill="none" stroke="#BE1E2D" x1="277.592" y1="336.278" x2="248.122" y2="323.715"/>
<line fill="none" stroke="#BE1E2D" x1="267.205" y1="393.526" x2="329.285" y2="379.274"/>
<line fill="none" stroke="#F7941E" x1="304.646" y1="331.93" x2="248.123" y2="323.716"/>
<line fill="none" stroke="#F7941E" x1="304.646" y1="331.93" x2="277.591" y2="336.279"/>
<line fill="none" stroke="#F7941E" x1="304.293" y1="333.604" x2="276.868" y2="366.956"/>
<line fill="none" stroke="#F7941E" x1="305.528" y1="333.567" x2="302.638" y2="379.397"/>
<line fill="none" stroke="#F7941E" x1="314.775" y1="366.155" x2="250.775" y2="339.672"/>
<line fill="none" stroke="#F7941E" x1="312.017" y1="365.604" x2="324.213" y2="339.175"/>
<line fill="none" stroke="#F7941E" x1="324.184" y1="353.069" x2="348.222" y2="384.801"/>
<line fill="none" stroke="#F7941E" x1="322.5" y1="353.465" x2="315.879" y2="390.43"/>
<line fill="none" stroke="#F7941E" x1="335.189" y1="394.845" x2="305.854" y2="414.783"/>
<line fill="none" stroke="#F7941E" x1="333.59" y1="395.922" x2="360.093" y2="394.009"/>
<line fill="none" stroke="#F7941E" x1="333.59" y1="395.922" x2="346.132" y2="362.476"/>
<line fill="none" stroke="#F7941E" x1="373.731" y1="355.602" x2="397.163" y2="320.093"/>
<line fill="none" stroke="#F7941E" x1="372.155" y1="356.224" x2="401.27" y2="369.13"/>
<line fill="none" stroke="#F7941E" x1="372.155" y1="356.224" x2="382.337" y2="324.849"/>
<line fill="none" stroke="#F7941E" x1="343.78" y1="321.3" x2="354.166" y2="340.383"/>
<line fill="none" stroke="#F7941E" x1="343.78" y1="321.3" x2="341.951" y2="345.753"/>
<line fill="none" stroke="#F7941E" x1="343.78" y1="321.3" x2="329.044" y2="304.633"/>
<line fill="none" stroke="#F7941E" x1="342.914" y1="319.81" x2="379.879" y2="306.569"/>
<line fill="none" stroke="#F7941E" x1="374.914" y1="356.224" x2="341.951" y2="345.753"/>
<line fill="none" stroke="#F7941E" x1="325.811" y1="352.362" x2="341.951" y2="345.753"/>
<line fill="none" stroke="#F7941E" x1="373.731" y1="355.602" x2="377.12" y2="382.706"/>
<line fill="none" stroke="#F7941E" x1="347.879" y1="386.017" x2="373.731" y2="355.602"/>
<line fill="none" stroke="#00AEEF" x1="408.758" y1="277.578" x2="403.202" y2="303.425"/>
<line fill="none" stroke="#00AEEF" x1="228.314" y1="295.695" x2="282.527" y2="314.775"/>
<line fill="none" stroke="#00AEEF" x1="271.069" y1="272.15" x2="284.597" y2="314.779"/>
<line fill="none" stroke="#00AEEF" x1="312.319" y1="284.983" x2="304.646" y2="331.929"/>
<line fill="none" stroke="#00AEEF" x1="247.156" y1="278.786" x2="277.592" y2="336.278"/>
<line fill="none" stroke="#00AEEF" x1="290.861" y1="274.441" x2="305.528" y2="333.566"/>
<line fill="none" stroke="#00AEEF" x1="345.886" y1="284.41" x2="324.213" y2="339.176"/>
<line fill="none" stroke="#00AEEF" x1="220.102" y1="344.008" x2="322.5" y2="353.466"/>
<line fill="none" stroke="#00AEEF" x1="232.42" y1="377.101" x2="303.949" y2="379.199"/>
<line fill="none" stroke="#00AEEF" x1="303.95" y1="379.198" x2="275.417" y2="418.165"/>
<line fill="none" stroke="#00AEEF" x1="275.418" y1="418.165" x2="315.879" y2="390.431"/>
<line fill="none" stroke="#00AEEF" x1="315.879" y1="390.431" x2="258.267" y2="402.465"/>
<line fill="none" stroke="#00AEEF" x1="312.017" y1="454.982" x2="328.017" y2="379.396"/>
<line fill="none" stroke="#00AEEF" x1="328.017" y1="475.948" x2="333.59" y2="395.922"/>
<line fill="none" stroke="#00AEEF" x1="382.429" y1="421.307" x2="331.879" y2="396.5"/>
<line fill="none" stroke="#00AEEF" x1="366.002" y1="273.955" x2="354.166" y2="340.384"/>
<line fill="none" stroke="#00AEEF" x1="388.709" y1="270.814" x2="341.951" y2="345.752"/>
<line fill="none" stroke="#00AEEF" x1="343.78" y1="321.3" x2="345.672" y2="285.604"/>
<line fill="none" stroke="#00AEEF" x1="343.78" y1="321.3" x2="438.542" y2="324.999"/>
<line fill="none" stroke="#00AEEF" x1="383.741" y1="421.879" x2="377.355" y2="381.207"/>
<line fill="none" stroke="#00AEEF" x1="382.429" y1="421.307" x2="366.728" y2="407.537"/>
<line fill="none" stroke="#00AEEF" x1="228.314" y1="295.695" x2="248.123" y2="323.716"/>
<line fill="none" stroke="#00AEEF" x1="228.314" y1="295.695" x2="248.436" y2="295.662"/>
<line fill="none" stroke="#00AEEF" x1="430.258" y1="362.365" x2="380.431" y2="325.879"/>
<line fill="none" stroke="#00AEEF" x1="430.258" y1="362.365" x2="395.327" y2="319.258"/>
<line fill="none" stroke="#00AEEF" x1="430.258" y1="362.365" x2="401.27" y2="369.13"/>
<line fill="none" stroke="#00AEEF" x1="425.426" y1="293.763" x2="403.202" y2="303.426"/>
<line fill="none" stroke="#00AEEF" x1="425.426" y1="293.763" x2="397.163" y2="320.093"/>
<line fill="none" stroke="#00AEEF" x1="409.672" y1="276.224" x2="379.879" y2="306.569"/>
<line fill="none" stroke="#00AEEF" x1="388.709" y1="270.814" x2="381.463" y2="306.324"/>
<line fill="none" stroke="#00AEEF" x1="430.258" y1="362.365" x2="386.224" y2="354.114"/>
<line fill="none" stroke="#00AEEF" x1="436.999" y1="325.667" x2="354.166" y2="340.384"/>
<line fill="none" stroke="#00AEEF" x1="312.017" y1="454.982" x2="305.854" y2="414.784"/>
<line fill="none" stroke="#00AEEF" x1="349.334" y1="448.117" x2="360.093" y2="394.009"/>
<line fill="none" stroke="#00AEEF" x1="409.242" y1="393.526" x2="373.731" y2="355.603"/>
<line fill="none" stroke="#00AEEF" x1="409.12" y1="394.845" x2="377.355" y2="381.207"/>
<line fill="none" stroke="#00AEEF" x1="350.638" y1="448.914" x2="333.393" y2="428.311"/>
<line fill="none" stroke="#00AEEF" x1="299.332" y1="440.148" x2="333.59" y2="395.921"/>
<line fill="none" stroke="#00AEEF" x1="219.618" y1="320.334" x2="252.229" y2="338.692"/>
<line fill="none" stroke="#00AEEF" x1="219.327" y1="321.465" x2="248.122" y2="323.715"/>
<line fill="none" stroke="#00AEEF" x1="219.327" y1="321.465" x2="276.868" y2="366.955"/>
<line fill="none" stroke="#00AEEF" x1="314.551" y1="283.859" x2="329.044" y2="304.633"/>
<line fill="none" stroke="#00AEEF" x1="290.878" y1="273.23" x2="324.213" y2="339.176"/>
<line fill="none" stroke="#00AEEF" x1="314.551" y1="283.859" x2="279.466" y2="335.81"/>
<line fill="none" stroke="#00AEEF" x1="346.224" y1="282.845" x2="328.568" y2="306.569"/>
<line fill="none" stroke="#00AEEF" x1="367.189" y1="273.465" x2="373.731" y2="355.602"/>
<line fill="none" stroke="#00AEEF" x1="345.886" y1="284.41" x2="382.337" y2="324.849"/>
<line fill="none" stroke="#00AEEF" x1="232.42" y1="377.101" x2="277.591" y2="336.279"/>
<line fill="none" stroke="#00AEEF" x1="230.362" y1="376.638" x2="314.775" y2="366.156"/>
<line fill="none" stroke="#00AEEF" x1="436.999" y1="325.667" x2="386.224" y2="354.115"/>
<line fill="none" stroke="#00AEEF" x1="270.104" y1="270.814" x2="341.951" y2="345.752"/>
<line fill="none" stroke="#00AEEF" x1="247.156" y1="278.786" x2="284.597" y2="314.779"/>
<line fill="none" stroke="#00AEEF" x1="218.776" y1="342.982" x2="252.229" y2="338.692"/>
<line fill="none" stroke="#00AEEF" x1="256.845" y1="402.018" x2="267.205" y2="393.526"/>
<line fill="none" stroke="#00AEEF" x1="232.42" y1="377.101" x2="267.206" y2="393.526"/>
<line fill="none" stroke="#00AEEF" x1="410.775" y1="393.741" x2="362.775" y2="393.741"/>
<line fill="none" stroke="#00AEEF" x1="329.769" y1="474.932" x2="348.222" y2="384.802"/>
<line fill="none" stroke="#00AEEF" x1="349.334" y1="448.117" x2="330.224" y2="377.741"/>
<line fill="none" stroke="#00AEEF" x1="221.534" y1="344.534" x2="313.584" y2="366.506"/>
<line fill="none" stroke="#00AEEF" x1="425.426" y1="293.763" x2="386.224" y2="354.115"/>
<line fill="none" stroke="#00AEEF" x1="425.426" y1="293.763" x2="423.947" y2="319.013"/>
<line fill="none" stroke="#00AEEF" x1="409.12" y1="394.845" x2="366.728" y2="407.537"/>
<line fill="none" stroke="#00AEEF" x1="401.27" y1="369.13" x2="409.242" y2="393.526"/>
<line fill="none" stroke="#00AEEF" x1="298.224" y1="440.638" x2="305.948" y2="413.604"/>
<line fill="none" stroke="#00AEEF" x1="275.418" y1="418.165" x2="303.189" y2="414.155"/>
<line fill="none" stroke="#00AEEF" x1="275.052" y1="416.914" x2="267.205" y2="393.526"/>
<g>
	<defs>
		<rect id="SVGID_1_" width="612" height="792"/>
	</defs>
	<clipPath id="SVGID_2_">
		<use xlink:href="#SVGID_1_"  overflow="visible"/>
	</clipPath>
	<path clip-path="url(#SVGID_2_)" fill="#F7941E" d="M332.848,304.632c0,2.102-1.702,3.806-3.803,3.806
		c-2.102,0-3.805-1.704-3.805-3.806c0-2.101,1.703-3.804,3.805-3.804C331.146,300.828,332.848,302.531,332.848,304.632"/>
	<path clip-path="url(#SVGID_2_)" fill="#00AEEF" d="M349.689,284.41c0,2.102-1.703,3.805-3.805,3.805
		c-2.1,0-3.803-1.703-3.803-3.805c0-2.101,1.703-3.804,3.803-3.804C347.986,280.605,349.689,282.309,349.689,284.41"/>
	<path clip-path="url(#SVGID_2_)" fill="#00AEEF" d="M318.355,283.858c0,2.102-1.703,3.805-3.805,3.805s-3.805-1.703-3.805-3.805
		c0-2.101,1.703-3.804,3.805-3.804S318.355,281.757,318.355,283.858"/>
	<path clip-path="url(#SVGID_2_)" fill="#00AEEF" d="M294.683,273.23c0,2.101-1.704,3.805-3.805,3.805
		c-2.1,0-3.804-1.704-3.804-3.805s1.704-3.806,3.804-3.806C292.979,269.424,294.683,271.129,294.683,273.23"/>
	<path clip-path="url(#SVGID_2_)" fill="#F7941E" d="M327.988,353.069c0,2.101-1.704,3.805-3.805,3.805
		c-2.102,0-3.806-1.704-3.806-3.805c0-2.102,1.704-3.804,3.806-3.804C326.284,349.265,327.988,350.967,327.988,353.069"/>
	<path clip-path="url(#SVGID_2_)" fill="#F9ED32" d="M345.756,345.752c0,2.102-1.702,3.806-3.807,3.806
		c-2.101,0-3.804-1.704-3.804-3.806c0-2.101,1.703-3.805,3.804-3.805C344.054,341.947,345.756,343.651,345.756,345.752"/>
	<path clip-path="url(#SVGID_2_)" fill="#F9ED32" d="M357.972,340.383c0,2.102-1.705,3.805-3.805,3.805
		c-2.102,0-3.806-1.703-3.806-3.805c0-2.101,1.704-3.803,3.806-3.803C356.267,336.58,357.972,338.282,357.972,340.383"/>
	<path clip-path="url(#SVGID_2_)" fill="#F9ED32" d="M328.017,339.177c0,2.1-1.702,3.803-3.804,3.803
		c-2.101,0-3.804-1.703-3.804-3.803c0-2.104,1.703-3.805,3.804-3.805C326.314,335.372,328.017,337.073,328.017,339.177"/>
	<path clip-path="url(#SVGID_2_)" fill="#BE1E2D" d="M288.401,314.779c0,2.102-1.703,3.804-3.805,3.804
		c-2.1,0-3.803-1.702-3.803-3.804s1.703-3.805,3.803-3.805C286.698,310.974,288.401,312.677,288.401,314.779"/>
	<path clip-path="url(#SVGID_2_)" fill="#F7941E" d="M317.389,365.506c0,2.101-1.703,3.805-3.805,3.805
		c-2.101,0-3.804-1.704-3.804-3.805s1.703-3.804,3.804-3.804C315.686,361.702,317.389,363.405,317.389,365.506"/>
	<path clip-path="url(#SVGID_2_)" fill="#F9ED32" d="M349.936,362.476c0,2.102-1.703,3.805-3.803,3.805
		c-2.102,0-3.805-1.703-3.805-3.805c0-2.1,1.703-3.804,3.805-3.804C348.232,358.671,349.936,360.375,349.936,362.476"/>
	<path clip-path="url(#SVGID_2_)" fill="#BE1E2D" d="M309.659,414.782c0,2.104-1.704,3.808-3.804,3.808
		c-2.101,0-3.806-1.704-3.806-3.808c0-2.1,1.705-3.804,3.806-3.804C307.955,410.979,309.659,412.683,309.659,414.782"/>
	<path clip-path="url(#SVGID_2_)" fill="#00AEEF" d="M333.573,474.932c0,2.101-1.704,3.805-3.804,3.805
		c-2.102,0-3.806-1.704-3.806-3.805s1.704-3.804,3.806-3.804C331.869,471.128,333.573,472.831,333.573,474.932"/>
	<path clip-path="url(#SVGID_2_)" fill="#F7941E" d="M352.026,384.801c0,2.101-1.702,3.805-3.805,3.805
		c-2.101,0-3.805-1.704-3.805-3.805s1.704-3.804,3.805-3.804C350.324,380.997,352.026,382.7,352.026,384.801"/>
	<path clip-path="url(#SVGID_2_)" fill="#F9ED32" d="M333.09,379.274c0,2.101-1.703,3.805-3.805,3.805s-3.804-1.704-3.804-3.805
		s1.702-3.805,3.804-3.805S333.09,377.173,333.09,379.274"/>
	<path clip-path="url(#SVGID_2_)" fill="#00AEEF" d="M412.562,277.578c0,2.102-1.701,3.805-3.802,3.805
		c-2.103,0-3.805-1.703-3.805-3.805s1.702-3.804,3.805-3.804C410.86,273.774,412.562,275.476,412.562,277.578"/>
	<path clip-path="url(#SVGID_2_)" fill="#BE1E2D" d="M337.197,428.312c0,2.101-1.704,3.802-3.805,3.802s-3.805-1.701-3.805-3.802
		c0-2.104,1.704-3.807,3.805-3.807S337.197,426.209,337.197,428.312"/>
	<path clip-path="url(#SVGID_2_)" fill="#F7941E" d="M347.585,321.301c0,2.101-1.704,3.804-3.807,3.804
		c-2.101,0-3.803-1.703-3.803-3.804s1.702-3.805,3.803-3.805C345.881,317.496,347.585,319.2,347.585,321.301"/>
	<path clip-path="url(#SVGID_2_)" fill="#BE1E2D" d="M407.006,303.425c0,2.101-1.703,3.805-3.804,3.805s-3.804-1.704-3.804-3.805
		c0-2.102,1.703-3.805,3.804-3.805S407.006,301.323,407.006,303.425"/>
	<path clip-path="url(#SVGID_2_)" fill="#00AEEF" d="M429.23,293.763c0,2.102-1.703,3.805-3.805,3.805
		c-2.1,0-3.804-1.703-3.804-3.805c0-2.101,1.704-3.805,3.804-3.805C427.527,289.958,429.23,291.662,429.23,293.763"/>
	<path clip-path="url(#SVGID_2_)" fill="#00AEEF" d="M392.513,270.814c0,2.101-1.702,3.805-3.804,3.805
		c-2.101,0-3.804-1.704-3.804-3.805s1.703-3.805,3.804-3.805C390.811,267.01,392.513,268.713,392.513,270.814"/>
	<path clip-path="url(#SVGID_2_)" fill="#BE1E2D" d="M385.268,306.323c0,2.102-1.704,3.805-3.805,3.805
		c-2.103,0-3.805-1.703-3.805-3.805c0-2.101,1.702-3.804,3.805-3.804C383.563,302.519,385.268,304.222,385.268,306.323"/>
	<path clip-path="url(#SVGID_2_)" fill="#BE1E2D" d="M427.751,319.013c0,2.102-1.704,3.805-3.805,3.805
		c-2.103,0-3.805-1.703-3.805-3.805c0-2.101,1.702-3.804,3.805-3.804C426.047,315.208,427.751,316.912,427.751,319.013"/>
	<path clip-path="url(#SVGID_2_)" fill="#00AEEF" d="M440.804,325.667c0,2.102-1.703,3.805-3.805,3.805s-3.806-1.703-3.806-3.805
		c0-2.101,1.704-3.804,3.806-3.804S440.804,323.565,440.804,325.667"/>
	<path clip-path="url(#SVGID_2_)" fill="#F7941E" d="M377.536,355.603c0,2.099-1.702,3.803-3.803,3.803
		c-2.103,0-3.807-1.704-3.807-3.803c0-2.102,1.704-3.805,3.807-3.805C375.834,351.798,377.536,353.501,377.536,355.603"/>
	<path clip-path="url(#SVGID_2_)" fill="#F9ED32" d="M390.028,354.115c0,2.102-1.702,3.803-3.804,3.803s-3.806-1.701-3.806-3.803
		c0-2.101,1.704-3.805,3.806-3.805S390.028,352.014,390.028,354.115"/>
	<path clip-path="url(#SVGID_2_)" fill="#00AEEF" d="M232.119,295.695c0,2.101-1.704,3.804-3.804,3.804
		c-2.102,0-3.806-1.703-3.806-3.804c0-2.102,1.704-3.805,3.806-3.805C230.415,291.89,232.119,293.593,232.119,295.695"/>
	<path clip-path="url(#SVGID_2_)" fill="#BE1E2D" d="M252.24,295.662c0,2.101-1.704,3.805-3.804,3.805
		c-2.101,0-3.805-1.704-3.805-3.805c0-2.102,1.704-3.805,3.805-3.805C250.536,291.857,252.24,293.56,252.24,295.662"/>
	<path clip-path="url(#SVGID_2_)" fill="#00AEEF" d="M250.96,278.786c0,2.102-1.704,3.804-3.805,3.804s-3.804-1.702-3.804-3.804
		s1.703-3.804,3.804-3.804S250.96,276.684,250.96,278.786"/>
	<path clip-path="url(#SVGID_2_)" fill="#00AEEF" d="M223.422,320.333c0,2.103-1.704,3.805-3.805,3.805
		c-2.1,0-3.804-1.702-3.804-3.805c0-2.1,1.704-3.804,3.804-3.804C221.718,316.529,223.422,318.233,223.422,320.333"/>
	<path clip-path="url(#SVGID_2_)" fill="#BE1E2D" d="M251.926,323.716c0,2.102-1.703,3.804-3.805,3.804
		c-2.1,0-3.802-1.702-3.802-3.804c0-2.1,1.702-3.805,3.802-3.805C250.223,319.911,251.926,321.616,251.926,323.716"/>
	<path clip-path="url(#SVGID_2_)" fill="#BE1E2D" d="M321.496,390.869c0,2.104-1.703,3.805-3.805,3.805s-3.805-1.701-3.805-3.805
		c0-2.101,1.703-3.803,3.805-3.803S321.496,388.768,321.496,390.869"/>
	<path clip-path="url(#SVGID_2_)" fill="#BE1E2D" d="M363.897,394.01c0,2.101-1.704,3.805-3.805,3.805s-3.805-1.704-3.805-3.805
		c0-2.102,1.704-3.806,3.805-3.806S363.897,391.908,363.897,394.01"/>
	<path clip-path="url(#SVGID_2_)" fill="#00AEEF" d="M369.807,273.955c0,2.102-1.703,3.804-3.805,3.804
		c-2.1,0-3.804-1.702-3.804-3.804s1.704-3.804,3.804-3.804C368.104,270.151,369.807,271.853,369.807,273.955"/>
	<path clip-path="url(#SVGID_2_)" fill="#00AEEF" d="M279.223,418.165c0,2.103-1.704,3.805-3.804,3.805
		c-2.102,0-3.806-1.702-3.806-3.805c0-2.101,1.704-3.805,3.806-3.805C277.519,414.36,279.223,416.064,279.223,418.165"/>
	<path clip-path="url(#SVGID_2_)" fill="#F7941E" d="M256.033,338.693c0,2.102-1.703,3.804-3.804,3.804
		c-2.102,0-3.805-1.702-3.805-3.804c0-2.101,1.703-3.805,3.805-3.805C254.33,334.888,256.033,336.592,256.033,338.693"/>
	<path clip-path="url(#SVGID_2_)" fill="#F7941E" d="M337.395,395.921c0,2.101-1.703,3.805-3.804,3.805
		c-2.104,0-3.806-1.704-3.806-3.805c0-2.102,1.702-3.803,3.806-3.803C335.691,392.118,337.395,393.819,337.395,395.921"/>
	<path clip-path="url(#SVGID_2_)" fill="#F7941E" d="M280.672,366.956c0,2.102-1.703,3.804-3.804,3.804
		c-2.102,0-3.804-1.702-3.804-3.804s1.702-3.805,3.804-3.805C278.969,363.15,280.672,364.854,280.672,366.956"/>
	<path clip-path="url(#SVGID_2_)" fill="#F9ED32" d="M307.755,379.199c0,2.099-1.705,3.803-3.806,3.803s-3.804-1.704-3.804-3.803
		c0-2.102,1.703-3.805,3.804-3.805S307.755,377.097,307.755,379.199"/>
	<path clip-path="url(#SVGID_2_)" fill="#F7941E" d="M308.451,331.93c0,2.1-1.703,3.805-3.805,3.805
		c-2.101,0-3.804-1.705-3.804-3.805c0-2.101,1.703-3.805,3.804-3.805C306.748,328.125,308.451,329.829,308.451,331.93"/>
	<path clip-path="url(#SVGID_2_)" fill="#00AEEF" d="M236.225,377.101c0,2.1-1.704,3.805-3.805,3.805
		c-2.101,0-3.804-1.705-3.804-3.805s1.703-3.805,3.804-3.805C234.521,373.295,236.225,375,236.225,377.101"/>
	<path clip-path="url(#SVGID_2_)" fill="#00AEEF" d="M303.137,440.148c0,2.101-1.704,3.803-3.805,3.803
		c-2.101,0-3.805-1.702-3.805-3.803c0-2.104,1.704-3.804,3.805-3.804C301.433,436.345,303.137,438.045,303.137,440.148"/>
	<path clip-path="url(#SVGID_2_)" fill="#00AEEF" d="M317.147,454.642c0,2.101-1.703,3.805-3.804,3.805
		c-2.103,0-3.805-1.704-3.805-3.805c0-2.102,1.702-3.806,3.805-3.806C315.444,450.836,317.147,452.54,317.147,454.642"/>
	<path clip-path="url(#SVGID_2_)" fill="#BE1E2D" d="M271.009,393.526c0,2.102-1.703,3.805-3.803,3.805
		c-2.103,0-3.805-1.703-3.805-3.805c0-2.1,1.702-3.805,3.805-3.805C269.306,389.721,271.009,391.426,271.009,393.526"/>
	<path clip-path="url(#SVGID_2_)" fill="#00AEEF" d="M413.047,393.526c0,2.102-1.704,3.805-3.805,3.805
		c-2.104,0-3.805-1.703-3.805-3.805c0-2.1,1.701-3.805,3.805-3.805C411.343,389.721,413.047,391.426,413.047,393.526"/>
	<path clip-path="url(#SVGID_2_)" fill="#BE1E2D" d="M381.16,381.208c0,2.1-1.703,3.804-3.805,3.804
		c-2.101,0-3.804-1.704-3.804-3.804c0-2.102,1.703-3.806,3.804-3.806C379.457,377.402,381.16,379.106,381.16,381.208"/>
	<path clip-path="url(#SVGID_2_)" fill="#BE1E2D" d="M370.531,407.539c0,2.1-1.702,3.803-3.805,3.803
		c-2.1,0-3.803-1.703-3.803-3.803c0-2.104,1.703-3.807,3.803-3.807C368.829,403.732,370.531,405.436,370.531,407.539"/>
	<path clip-path="url(#SVGID_2_)" fill="#00AEEF" d="M386.233,421.306c0,2.101-1.704,3.806-3.806,3.806
		c-2.1,0-3.804-1.705-3.804-3.806s1.704-3.804,3.804-3.804C384.529,417.502,386.233,419.205,386.233,421.306"/>
	<path clip-path="url(#SVGID_2_)" fill="#00AEEF" d="M353.14,448.118c0,2.102-1.703,3.805-3.804,3.805
		c-2.103,0-3.807-1.703-3.807-3.805c0-2.1,1.704-3.806,3.807-3.806C351.437,444.312,353.14,446.019,353.14,448.118"/>
	<path clip-path="url(#SVGID_2_)" fill="#00AEEF" d="M262.071,402.464c0,2.101-1.703,3.806-3.803,3.806
		c-2.102,0-3.806-1.705-3.806-3.806s1.704-3.805,3.806-3.805C260.368,398.659,262.071,400.363,262.071,402.464"/>
	<path clip-path="url(#SVGID_2_)" fill="#00AEEF" d="M223.906,344.007c0,2.102-1.704,3.804-3.804,3.804
		c-2.103,0-3.805-1.702-3.805-3.804c0-2.101,1.702-3.803,3.805-3.803C222.202,340.204,223.906,341.906,223.906,344.007"/>
	<path clip-path="url(#SVGID_2_)" fill="#BE1E2D" d="M281.396,336.277c0,2.101-1.703,3.807-3.805,3.807
		c-2.1,0-3.804-1.706-3.804-3.807s1.704-3.804,3.804-3.804C279.693,332.473,281.396,334.176,281.396,336.277"/>
	<path clip-path="url(#SVGID_2_)" fill="#00AEEF" d="M273.909,270.814c0,2.101-1.704,3.805-3.805,3.805
		c-2.101,0-3.805-1.704-3.805-3.805s1.704-3.805,3.805-3.805C272.205,267.01,273.909,268.713,273.909,270.814"/>
	<path clip-path="url(#SVGID_2_)" fill="#00AEEF" d="M434.062,362.365c0,2.102-1.703,3.805-3.806,3.805
		c-2.099,0-3.805-1.703-3.805-3.805c0-2.1,1.706-3.804,3.805-3.804C432.359,358.561,434.062,360.265,434.062,362.365"/>
	<path clip-path="url(#SVGID_2_)" fill="#BE1E2D" d="M400.968,320.093c0,2.102-1.701,3.804-3.805,3.804
		c-2.1,0-3.805-1.702-3.805-3.804c0-2.101,1.705-3.805,3.805-3.805C399.267,316.288,400.968,317.992,400.968,320.093"/>
	<path clip-path="url(#SVGID_2_)" fill="#F7941E" d="M386.142,324.85c0,2.101-1.702,3.805-3.804,3.805s-3.806-1.704-3.806-3.805
		s1.704-3.805,3.806-3.805S386.142,322.749,386.142,324.85"/>
	<path clip-path="url(#SVGID_2_)" fill="#BE1E2D" d="M405.075,369.13c0,2.1-1.704,3.804-3.804,3.804
		c-2.104,0-3.808-1.704-3.808-3.804c0-2.102,1.704-3.805,3.808-3.805C403.371,365.325,405.075,367.028,405.075,369.13"/>
</g>
<g>
	<path fill="#BE1E2D" stroke="#FFFFFF" stroke-width="2" d="M279.656,359.062c0-2.352,1.536-3.935,3.935-3.935
		c2.4,0,3.935,1.583,3.935,3.935v27.93c0,2.351-1.535,3.935-3.935,3.935c-2.399,0-3.935-1.584-3.935-3.935V359.062z"/>
	<path fill="#BE1E2D" stroke="#FFFFFF" stroke-width="2" d="M294.819,360.357c0-3.503,1.824-4.606,4.607-4.606h12.045
		c6.623,0,11.949,3.263,11.949,10.941c0,6.286-4.366,10.941-11.997,10.941h-8.733v9.358c0,2.351-1.536,3.935-3.936,3.935
		s-3.935-1.584-3.935-3.935V360.357z M302.689,371.587h7.342c3.168,0,5.519-1.919,5.519-4.895c0-3.456-2.447-4.895-6.334-4.895
		h-6.526V371.587z"/>
	<path fill="#BE1E2D" stroke="#FFFFFF" stroke-width="2" d="M325.72,370.003c-0.191-0.576-0.432-1.344-0.432-1.775
		c0-2.496,1.728-3.647,3.407-3.647c2.64,0,3.312,2.208,3.503,2.927l4.703,15.836h0.096l4.703-15.836
		c0.192-0.72,0.864-2.927,3.503-2.927c1.68,0,3.407,1.152,3.407,3.647c0,0.432-0.239,1.2-0.432,1.775l-6.622,18.428
		c-0.672,1.872-1.104,2.496-4.607,2.496s-3.935-0.624-4.606-2.496L325.72,370.003z"/>
	<path fill="#BE1E2D" stroke="#FFFFFF" stroke-width="2" d="M357.822,371.491c2.063-1.968,4.271-3.071,7.486-3.071
		c7.198,0,11.134,4.799,11.134,10.605c0,7.918-5.423,11.901-12.43,11.901c-10.174,0-13.197-7.918-13.197-15.5
		c0-14.205,5.52-19.244,14.445-19.244c5.711,0,9.598,3.263,9.598,6.19c0,1.728-1.344,3.12-3.023,3.12
		c-3.167,0-3.312-4.127-7.198-4.127c-4.991,0-6.814,4.847-6.814,9.262V371.491z M363.869,385.456c3.455,0,5.566-2.256,5.566-5.951
		c0-4.079-2.399-5.903-5.566-5.903c-3.119,0-5.615,2.111-5.615,5.903C358.254,383.2,360.414,385.456,363.869,385.456z"/>
</g>
<g>
	<path fill="#BE1E2D" stroke="#FFFFFF" stroke-width="2" d="M278.243,322.366c0-3.503,1.824-4.606,4.607-4.606h9.598
		c8.59,0,16.46,3.743,16.46,17.276c0,10.941-6.095,17.276-16.604,17.276h-9.454c-2.783,0-4.607-1.104-4.607-4.607V322.366z
		 M286.113,345.977h6.622c6.287,0,8.302-5.615,8.302-10.941c0-6.814-2.591-10.941-8.35-10.941h-6.574V345.977z"/>
	<path fill="#BE1E2D" stroke="#FFFFFF" stroke-width="2" d="M314.518,321.743c0-3.263,1.584-4.607,4.943-4.607
		c1.632,0,3.071,0.624,3.935,2.063l13.773,22.219h0.096v-20.491c0-2.543,1.439-3.791,3.791-3.791s3.791,1.248,3.791,3.791v27.114
		c0,3.119-1.344,4.895-4.655,4.895c-2.495,0-3.311-0.528-4.318-2.112l-13.677-21.595H322.1v19.915c0,2.543-1.439,3.792-3.791,3.792
		s-3.791-1.248-3.791-3.792V321.743z"/>
	<path fill="#BE1E2D" stroke="#FFFFFF" stroke-width="2" d="M370.086,332.3c7.198,1.631,9.021,5.902,9.021,9.934
		c0,6.239-4.703,10.894-14.204,10.894c-9.982,0-14.445-4.991-14.445-8.734c0-1.92,1.392-3.264,3.312-3.264
		c4.271,0,3.167,6.239,11.134,6.239c4.078,0,6.334-2.255,6.334-4.559c0-1.392-0.672-2.927-3.359-3.599L359,336.955
		c-7.15-1.824-8.446-5.759-8.446-9.454c0-7.678,7.103-10.558,13.773-10.558c6.143,0,13.389,3.455,13.389,8.062
		c0,1.968-1.68,3.119-3.599,3.119c-3.647,0-2.976-5.135-10.318-5.135c-3.646,0-5.662,1.68-5.662,4.079s2.879,3.167,5.374,3.743
		L370.086,332.3z"/>
</g>
</svg>
