<?xml version="1.0" standalone="no"?>
<!DOCTYPE svg PUBLIC "-//W3C//DTD SVG 1.0//EN"
 "http://www.w3.org/TR/2001/REC-SVG-20010904/DTD/svg10.dtd">
<svg xmlns="http://www.w3.org/2000/svg" version="1.0"
 x="0" y="0" width="120" height="120" id="anargeek">
 <title>Anargeek Logo</title>
 <desc>
  The Anargeek Emblem
  $MirOS: www/pics/anargeek.svg,v 1.1 2005/03/16 22:04:15 tg Exp $
  Copyright (c) 2005 by Thorsten "mirabile" Glaser &#x3C;tg@mirbsd.org&#x3E;
  This work is covered by the standard MirOS licence template.
 </desc>
 <defs>
  <clipPath id="anarchie">
   <path d="M0,120 V0 H120 Z" />
  </clipPath>
  <clipPath id="sozialismus">
   <path d="M0,120 H120 V0 Z" />
  </clipPath>
 </defs>
 <g id="frame" style="stroke-width:2;fill:none;">
  <path style="stroke:#FF0000;fill:#FF0000;" d="M0,120 H120 V0 Z" />
  <path style="stroke:#000000;fill:#000000;" d="M0,120 V0 H120 Z" />
  <path style="stroke:#000000;" d="M80,120 V40 H120" />
  <path style="stroke:#FF0000;" d="M0,40 H80 V0 M0,80 H40 V0" />
  <path style="stroke:#000000;" d="M40,120 V80 H120" />
 </g>
 <g id="geeks">
  <ellipse style="fill:#FF0000;" cx="60" cy="20" rx="16" ry="16" id="D12" />
  <ellipse style="fill:#000000;" cx="100" cy="60" rx="16" ry="16" id="D21" />
  <ellipse style="fill:#000000;" cx="100" cy="100" rx="16" ry="16" id="D20" />
  <ellipse style="fill:#000000;" cx="60" cy="100" rx="16" ry="16" id="D10" />
  <ellipse style="fill:#000000;" cx="20" cy="100" rx="16" ry="16" id="D00S"
   clip-path="url(#sozialismus)" />
  <ellipse style="fill:#FF0000;" cx="20" cy="100" rx="16" ry="16" id="D00A"
   clip-path="url(#anarchie)" />
 </g>
</svg>
