<?xml version="1.0" encoding="utf-8"?>
<!DOCTYPE svg PUBLIC "-//W3C//DTD SVG 1.1//EN" "http://www.w3.org/Graphics/SVG/1.1/DTD/svg11.dtd">
<svg version="1.1" id="Layer_1" xmlns="http://www.w3.org/2000/svg" xmlns:xlink="http://www.w3.org/1999/xlink" x="0px" y="0px"
	 width="800px" height="600px" viewBox="0 0 800 600" enable-background="new 0 0 800 600" xml:space="preserve">
<title>Ewe icon</title
<desc>Icon for MirEwe (Lunix Ewe VM), created by Lukas “smultron” Upton
 and provided under any Creative Commons licence.
 $MirOS$
</desc>
<g>
	<path fill="#000080" d="M255.538,236.077c0,0-32.181,20.544-47.943,37.67c-11.813,12.849-22.76,31.331-26.708,41.089
		c-20.191,50.014-19.871,96.721,14.991,128.918c26.788,24.75,74.089,24.285,81.665,23.113c6.677-1.027,19.261-4.879,31.331-11.3
		c8.218,10.272,17.88,17.463,28.763,21.315c8.828,3.146,36.306,8.844,55.214,7.447c13.868-1.027,33.737-3.354,41.347-6.164
		c20.801-7.703,53.416-32.101,77.555-59.836c18.362-21.105,31.941-48.584,44.429-74.73c21.219-44.509,10.272-105.468,10.272-105.468
		s-2.473,45.631-46.996,115.484c-18.908,29.677-63.688,70.702-79.611,80.381c-31.522,19.164-72.933,26.707-91.167,15.665
		c-12.134-7.352,10.882-23.306,16.179-27.479c29.019-22.856,41.86-40.062,49.05-70.108c4.014-16.854,0.578-59.387-25.52-63.946
		c-17.624-3.082-35.953,6.854-43.561,11.557c-8.731,5.393-23.161,19.02-28.762,29.276c-7.448,13.611-10.272,24.396-13.354,42.117
		c-1.83,10.496-2.6,41.105-6.677,49.82c-7.447,15.842-40.704,23.996-68.568,1.444c-14.381-11.636-22.599-25.071-25.938-38.682
		c-3.531-14.333-2.312-39.548,5.393-61.297C226.872,266.027,255.538,236.077,255.538,236.077z"/>
	<path fill="#00FFFF" d="M380.588,369.344c-8.523,25.168-37.205,46.018-45.455,43.225s-10.192-33.401-1.669-58.553
		c8.523-25.167,36.948-45.455,45.166-42.662C386.879,314.131,389.111,344.193,380.588,369.344z"/>
	<path fill="#000080" d="M582.054,118.748c2.022,2.078,45.792,44.227,47.927,46.506c2.087,2.279,3.387,7.054,0.369,8.547
		c-3.033,1.484-58.455,36.418-61.345,37.879c-2.856,1.469-9.294,1.036-12.68-1.773c-3.387-2.817-44.123-41.499-45.921-43.649
		c-2.006-2.408-1.123-8.458,1.717-10.818c2.746-2.312,58.184-36.122,60.752-37.534C575.441,116.508,580.048,116.669,582.054,118.748
		z"/>
	<path fill="#00FFFF" d="M579.92,123.362c0.674,0.811,15.617,15.738,16.499,16.717c0.883,0.971,0.899,3.491,0.017,4.173
		c-0.852,0.682-54.604,33.963-56.241,34.798c-1.653,0.842-4.206,0.401-5.329-0.434c-1.107-0.858-14.782-12.889-16.756-14.438
		c-1.975-1.565-0.852-4.181,0.465-5.385c1.316-1.196,55.904-34.38,57.349-35.279C577.367,122.616,579.213,122.551,579.92,123.362z"
		/>
	<path fill="#C0C0FF" d="M604.525,150.014c0.963,0.658,16.387,14.333,17.446,15.353c1.027,1.019,0.562,3.282-0.578,3.924
		c-1.155,0.626-53.608,34.356-55.085,35.167c-1.477,0.803-5.152,0.867-6.934-0.682c-1.75-1.557-15.457-14.301-16.163-15.393
		c-0.706-1.083-0.289-2.207,0.754-3.194c1.06-0.971,54.7-34.18,56.819-35.279C602.904,148.802,603.529,149.348,604.525,150.014z"/>
	<path fill="#000080" d="M294.204,149.516c12.583,23.53,9.999,51.338-7.769,60.848c-17.752,9.494-47.959-0.498-60.542-24.012
		c-12.584-23.522-8.957-51.033,8.795-60.542C252.457,116.308,281.62,125.994,294.204,149.516z"/>
	<path fill="#00FFFF" d="M282.23,155.07c0.097,13.418-21.25,29.597-36.755,29.709c-15.505,0.12-20.673-16.548-20.77-29.975
		s11.685-26.788,27.189-26.909C267.399,127.784,282.134,141.644,282.23,155.07z"/>
	<path fill="#C0C0FF" d="M293.883,184.041c0,13.426-12.567,21.909-28.072,21.909s-22.294-9.229-10.962-16.436
		c7.543-4.791,14.429-7.488,26.034-15.762C290.464,166.915,293.883,170.615,293.883,184.041z"/>
</g>
</svg>
