<?xml version="1.0" encoding="utf-8"?>
<!DOCTYPE svg PUBLIC "-//W3C//DTD SVG 1.1//EN"
 "http://www.w3.org/Graphics/SVG/1.1/DTD/svg11.dtd">
<!-- 512x400 version (and scaled) -->
<svg xmlns="http://www.w3.org/2000/svg" version="1.1" id="logo"
 x="0" y="0" width="100%" height="100%" viewBox="144 200 512 400">
<!-- 64x64 version -->
<!-- svg xmlns="http://www.w3.org/2000/svg" version="1.1" id="logo"
 x="0" y="0" width="100%" height="100%" viewBox="144 144 512 512" -->
 <title>mksh Logo</title>
 <desc>
  Logo for the MirBSD Korn Shell
  Based on an experimental draft of a new MirOS logo (CC-BY-IDC)
  Utilising Gentium Book Basic (Bold Italic)

  $MirOS: www/pics/mksh.svg,v 1.12 2009/08/01 17:42:59 tg Exp $
  Copyright © 2008 Lukas U. ＜smultron@midnightbsd.org＞
  Copyright © 2008 mirabilos ＜m@mirbsd.org＞

  This image is covered by the same terms as mksh itself.
  Nonwithstanding that, the trademark rights for any elements
  used have to be obtained separately.
 </desc>
	<g id="monitor">
		<linearGradient id="SVGID_1_" gradientUnits="userSpaceOnUse" x1="400.4946" y1="597.9512" x2="400.4946" y2="203.0825">
			<stop  offset="0" style="stop-color:#CCCCCC"/>
			<stop  offset="1" style="stop-color:#B3B3B3"/>
		</linearGradient>
		<path fill="url(#SVGID_1_)" d="M148.443,397.219c-0.832-76.121,10.379-152.996,11.93-163.84
			c1.633-11.395,6.516-17.359,17.367-18.984c6.125-0.918,113.844-10.91,218.922-11.301c112.473-0.414,210.648,10.184,217.801,10.758
			c13.562,1.086,22.082,6.879,24.414,17.902c2.461,11.629,11.961,82.645,13.562,157.871c1.594,75.238-9.941,168.828-13.02,180.117
			c-3.258,11.934-7.594,15.184-21.703,17.359c-8.961,1.379-109.656,10.727-218.633,10.848c-104.613,0.121-212.906-6.25-222.43-9.223
			c-8.68-2.711-13.023-9.227-15.195-23.875C160.072,555.504,149.326,478.586,148.443,397.219z"/>
		<linearGradient id="SVGID_2_" gradientUnits="userSpaceOnUse" x1="400.501" y1="587.1064" x2="400.5009" y2="216.0156">
			<stop  offset="0" style="stop-color:#595959"/>
			<stop  offset="1" style="stop-color:#4D4D4D"/>
		</linearGradient>
		<path fill="url(#SVGID_2_)" d="M159.303,398.211c-0.773-71.16,8.078-142.711,9.207-152.891
			c1.312-11.82,3.633-15.824,15.676-19.039c5.602-1.484,114.5-9.887,212.727-10.254c105.141-0.391,211.477,8.656,218.098,9.762
			c9.766,1.625,13.012,3.258,15.191,13.562c2.297,10.871,9.898,73.438,11.395,143.766c1.488,70.328-8.449,164.695-11.395,175.234
			c-3.797,13.562-3.797,14.648-20.074,17.902c-8.312,1.668-108.078,10.738-209.953,10.852c-97.797,0.117-200.246-6.934-209.41-8.684
			c-11.875-2.266-14.496-4.887-18.453-20.723C170.162,549.125,160.127,474.273,159.303,398.211z"/>
		<linearGradient id="SVGID_3_" gradientUnits="userSpaceOnUse" x1="399.1362" y1="579.5088" x2="399.1362" y2="221.9717">
			<stop  offset="0" style="stop-color:#231810"/>
			<stop  offset="1" style="stop-color:#000000"/>
		</linearGradient>
		<path fill="url(#SVGID_3_)" d="M169.057,394.508c-0.742-68.262,7.605-130.203,8.691-139.969
			c1.254-11.34,3.637-18.074,15.188-21.156c5.367-1.43,112.469-11.047,206.688-11.398c100.859-0.375,193.359,7.32,199.648,8.688
			c12.48,2.707,18.445,8.672,20.078,22.238c1.273,10.582,8.328,69.793,9.762,137.254c1.43,67.469-7.668,147.172-10.301,157.332
			c-4.062,15.637-5.965,17.902-20.613,20.613c-7.996,1.48-104.637,11.289-202.363,11.398
			c-93.809,0.109-188.141-8.633-196.934-10.309c-11.387-2.172-13.559-2.715-17.359-17.906
			C179.486,543.066,169.85,467.465,169.057,394.508z"/>
	</g>
	<g id="effect_glassy">
		<path opacity="0.05" fill="#FFFFFF" d="M169.057,394.508c-0.742-68.262,7.605-130.203,8.691-139.969
			c1.254-11.34,3.637-18.074,15.188-21.156c5.367-1.43,112.469-11.047,206.688-11.398c100.859-0.375,193.359,7.32,199.648,8.688
			c12.48,2.707,18.445,8.672,20.078,22.238c1.273,10.582,5.992,17.559,7.422,85.02c1.43,67.465-448.703,163.941-452.5,148.75
			C172.209,478.453,169.85,467.465,169.057,394.508z"/>
	</g>
	<g id="moniback">
		<path fill="#170F0B" stroke="#000000" stroke-width="5" d="M219.686,390.848c-0.59-53.98,4.199-108.848,5.648-114.969
			c1.898-8.004,4.281-11.273,12.383-13.414c4.297-1.133,78.266-6.18,153.59-6.453c80.629-0.297,162.168,3.832,167.184,4.977
			c10.359,2.367,12.234,6.117,13.105,15.957c0.543,6.133,7.152,65.352,8.297,118.703c1.137,53.352-3.102,103.836-5.207,111.871
			c-3.242,12.367-5.625,13.75-15.629,16.746c-6.227,1.863-85.262,6.195-163.395,6.281c-74.992,0.082-148.758-2.938-155.668-4.785
			c-11.469-3.074-10.566-2.262-13.637-14.09C224.67,505.176,220.318,448.547,219.686,390.848z"/>
	</g>
	<g id="effect_light">
		<path opacity="0.18" fill="#FFFFFF" d="M222.623,469.535c-1.691-23.402-3.203-57.59-3.039-98.164
			c0.188-45.02,4.969-92.188,5.75-95.492c1.898-8.004,4.281-11.273,12.383-13.414c4.297-1.133,78.266-6.18,153.59-6.453
			c80.629-0.297,162.168,3.832,167.184,4.977c10.359,2.367,12.234,6.117,13.105,15.957c0.543,6.133,5.332,45.832,6.996,85
			C536.459,399.18,294.186,462.453,222.623,469.535z"/>
	</g>
	<g id="the_m" opacity="0.1">
		<g id="the_m_letter">
			<path fill="#FFFFFF" d="M511.345,436.659c-4.445,2.608-9.253,5.314-14.42,8.115c-5.17,2.804-10.218,5.34-15.146,7.609
				c-4.927,2.269-9.542,4.152-13.84,5.651c-4.301,1.497-7.851,2.247-10.652,2.247c-1.449,0-2.851-0.388-4.203-1.16
				c-1.354-0.774-2.586-1.908-3.695-3.405c-1.111-1.497-2.006-3.283-2.681-5.362c-0.678-2.076-1.015-4.42-1.015-7.029
				c0-1.739,0.29-4.492,0.869-8.261c0.58-3.768,1.327-8.138,2.247-13.115c0.917-4.976,1.884-10.312,2.898-16.015
				c1.015-5.699,1.979-11.279,2.898-16.739c0.917-5.457,1.666-10.602,2.246-15.435c0.58-4.83,0.869-8.84,0.869-12.029
				c0-3.768-0.484-6.521-1.449-8.261c-0.967-1.739-2.318-2.608-4.058-2.608c-0.774,0-1.909,0.195-3.405,0.58
				c-1.499,0.387-3.261,1.184-5.29,2.391c-2.029,1.209-4.228,2.898-6.594,5.072c-2.369,2.174-4.761,5-7.174,8.479
				c-1.645,2.319-3.094,4.832-4.349,7.536c-1.257,2.706-2.416,5.797-3.478,9.275c-1.064,3.479-2.029,7.464-2.898,11.957
				c-0.87,4.492-1.739,9.638-2.609,15.435c-1.257,8.793-2.054,15.749-2.391,20.869c-0.34,5.122-0.412,8.793-0.218,11.015
				c-0.869,0.484-2.296,1.159-4.275,2.028c-1.981,0.87-4.202,1.861-6.666,2.972c-2.464,1.111-5.073,2.271-7.826,3.478
				c-2.754,1.21-5.362,2.344-7.826,3.406c-2.464,1.062-4.663,2.052-6.594,2.971c-1.934,0.917-3.333,1.569-4.203,1.957l-6.087-5.942
				c2.124-9.854,4.105-19.564,5.942-29.13c1.834-9.565,3.429-18.479,4.783-26.739c1.352-8.261,2.414-15.58,3.188-21.956
				c0.772-6.377,1.159-11.352,1.159-14.928c0-7.149-1.884-10.724-5.652-10.724c-0.58,0-1.572,0.195-2.971,0.58
				c-1.402,0.387-3.116,1.159-5.145,2.319c-2.029,1.159-4.275,2.803-6.739,4.927c-2.464,2.126-4.953,4.928-7.464,8.406
				c-1.644,2.319-3.141,4.88-4.493,7.681c-1.354,2.803-2.586,5.992-3.695,9.565c-1.112,3.576-2.126,7.609-3.043,12.102
				c-0.919,4.493-1.812,9.542-2.681,15.145c-1.354,8.793-2.296,15.725-2.826,20.797c-0.532,5.072-0.702,8.768-0.507,11.087
				c-0.87,0.484-2.246,1.159-4.13,2.028c-1.884,0.87-4.058,1.861-6.521,2.972c-2.464,1.111-5.05,2.271-7.753,3.478
				c-2.706,1.21-5.29,2.344-7.753,3.406c-2.464,1.062-4.638,2.052-6.522,2.971c-1.884,0.917-3.213,1.569-3.985,1.957l-6.232-5.942
				c2.029-10.24,3.936-20.337,5.725-30.289c1.787-9.95,3.356-19.298,4.71-28.043c1.352-8.743,2.439-16.594,3.261-23.55
				c0.819-6.957,1.231-12.511,1.231-16.667c0-2.221-0.145-3.985-0.435-5.29c-0.29-1.305-0.702-2.319-1.232-3.043
				c-0.532-0.725-1.137-1.182-1.812-1.377c-0.677-0.192-1.402-0.29-2.174-0.29c-0.967,0-2.224,0.195-3.768,0.58
				c-1.547,0.387-3.093,0.822-4.638,1.304l-5.652,1.884l-2.464-11.449c2.704-1.16,5.772-2.464,9.203-3.913
				c3.429-1.449,6.957-2.874,10.58-4.275c3.623-1.399,7.269-2.776,10.942-4.13c3.671-1.352,7.077-2.559,10.217-3.623
				c3.139-1.062,5.942-1.907,8.406-2.536c2.464-0.627,4.323-0.942,5.58-0.942c1.449,0,2.681,0.243,3.695,0.725
				c1.015,0.484,1.834,1.329,2.464,2.536c0.627,1.209,1.087,2.898,1.377,5.072c0.29,2.174,0.435,4.952,0.435,8.333
				c0,1.354-0.097,3.166-0.29,5.435c-0.195,2.271-0.435,4.47-0.725,6.594c5.699-5.7,11.014-10.41,15.941-14.13
				c4.928-3.718,9.588-6.667,13.985-8.841c4.396-2.174,8.598-3.67,12.609-4.493c4.008-0.819,7.994-1.232,11.957-1.232
				c3.573,0,6.642,0.652,9.202,1.957c2.559,1.305,4.66,3.068,6.305,5.29c1.642,2.224,2.826,4.783,3.551,7.681
				s1.087,5.942,1.087,9.13v1.16c0,0.58-0.05,1.257-0.146,2.029c5.603-5.312,10.725-9.732,15.362-13.261
				c4.638-3.525,8.985-6.327,13.043-8.405c4.059-2.077,7.898-3.526,11.521-4.348c3.624-0.819,7.27-1.232,10.942-1.232
				c2.801,0,5.482,0.46,8.043,1.377c2.56,0.919,4.783,2.392,6.667,4.42s3.381,4.663,4.492,7.898
				c1.11,3.238,1.667,7.174,1.667,11.812c0,5.507-0.58,11.884-1.739,19.13s-2.464,14.542-3.913,21.884
				c-1.449,7.344-2.753,14.252-3.913,20.724c-1.159,6.475-1.738,11.739-1.738,15.797c0,3.286,0.481,5.484,1.449,6.595
				c0.964,1.111,2.269,1.666,3.912,1.666c2.802,0,5.338-0.362,7.609-1.087c2.269-0.725,5.385-1.859,9.348-3.405L511.345,436.659z"
				/>
		</g>
		<g id="the_m_horn_left">
			<path fill="#FFFFFF" d="M340.553,322.426c0,0-15.848-1.613-19.449-7.152c-12.539-19.32,13.289-41.395,13.289-41.395
				s-13.656,4.828-23.012,13.254c-11.605,10.453-14.344,27.668-11.508,36.625c2.039,6.441,6.176,12.469,12.324,13.348
				C331.674,339.887,340.553,322.426,340.553,322.426z"/>
		</g>
		<g id="the_m_horn_right">
			<path fill="#FFFFFF" d="M467.576,322.992c0,0,15.844-1.621,19.438-7.16c12.555-19.316-13.281-41.383-13.281-41.383
				s13.656,4.816,23.016,13.246c11.602,10.453,14.344,27.664,11.512,36.613c-2.039,6.449-6.18,12.48-12.324,13.355
				C476.443,340.445,467.576,322.992,467.576,322.992z"/>
		</g>
		<g id="the_m_tail_trunk">
			<path fill="none" stroke="#FFFFFF" stroke-width="13.95" d="M492.756,437.441c24.609-13.984,58.734-0.562,49.219,24.047
				c-10.5,27.199-64.43,34.09-109.066,20.137c-21.324-6.656-100.512-21.164-140.961,15.102"/>
		</g>
		<g id="the_m_tail_tip">
			<polyline fill="none" stroke="#FFFFFF" stroke-width="13.95" points="291.064,483.965 277.787,508.457 306.107,500.043 				"/>
		</g>
	</g>
	<!-- 512x400: scale=1  128x100: scale=1  64x64: scale=1.25 -->
	<g id="prompt" transform="translate(244 272) scale(1) translate(-244 -272)">
		<path fill="#F9A74B" d="M388.654,316.922c0.697,0.584,1.052,1.405,1.052,2.473c0,0.679-0.216,1.248-0.602,1.73h8.503
			c0.118-0.69,0.184-1.419,0.184-2.199c0-0.705-0.046-1.373-0.137-2.004H388.654z M355.887,322.875l2.46,4.199h9.433l-2.68-4.199
			H355.887z M311.334,327.074h6.943v-4.199h-6.943V327.074z M338.507,327.074h8.584v-4.199h-8.584V327.074z M323.493,321.125
			h7.031v-4.203h-7.031V321.125z M394.208,310.973h-20.393c0.004,0.004,0.008,0.009,0.012,0.014
			c1.504,1.582,3.896,2.744,7.178,3.486l2.373,0.527c0.245,0.059,0.472,0.117,0.701,0.176h13.177
			c-0.364-1.129-0.912-2.111-1.646-2.944C395.208,311.776,394.736,311.359,394.208,310.973z M329.505,299.074h-30.417v4.203h7.295
			c0.08-0.417,0.176-0.764,0.292-1.021c0.371-0.82,1.044-1.23,2.021-1.23c0.977,0,1.66,0.42,2.051,1.26
			c0.119,0.255,0.217,0.592,0.3,0.992h7.515c0.083-0.4,0.181-0.737,0.3-0.992c0.391-0.839,1.074-1.26,2.051-1.26
			c0.977,0,1.65,0.41,2.021,1.23c0.116,0.257,0.212,0.604,0.292,1.021h7.023C330.083,301.564,329.833,300.165,329.505,299.074z
			 M364.077,299.074h-10.068l-3.883,4.203h9.688L364.077,299.074z M311.334,315.176h6.943v-4.203h-6.943V315.176z
			 M338.507,321.125h8.584v-4.203h-8.584V321.125z M311.334,321.125h6.943v-4.203h-6.943V321.125z M323.493,327.074h7.031v-4.199
			h-7.031V327.074z M305.329,295.4h-6.24v1.928h6.24V295.4z M323.493,315.176h7.031v-4.203h-7.031V315.176z M323.493,309.227
			h7.025c-0.008-1.538-0.051-2.938-0.128-4.203h-6.958c0.04,0.625,0.062,1.327,0.062,2.125V309.227z M311.334,307.148v2.078h6.943
			v-2.078c0-0.797,0.023-1.5,0.066-2.125h-7.076C311.311,305.648,311.334,306.352,311.334,307.148z M355.622,297.328h10.226
			l1.956-1.928h-10.4L355.622,297.328z M435.778,336.797v2.18h36.123v-2.18H435.778z M255.765,295.634
			c0-1,0.212-1.833,0.629-2.509h-9.16c-0.234,1.042-0.364,2.153-0.364,3.352c0,0.291,0.019,0.57,0.033,0.852h9.11
			C255.852,296.812,255.765,296.249,255.765,295.634z M247.141,325.113c1.959,0.818,3.851,1.465,5.682,1.961h17.46
			c1.594-0.639,2.995-1.538,4.198-2.702c0.486-0.47,0.909-0.974,1.298-1.497h-28.638V325.113z M259.977,338.354h4.75l0.012-3.581
			h-4.774L259.977,338.354z M422.214,305.023c0.193,0.879,0.293,1.944,0.293,3.209v0.994h8.525v-2.312
			c0-0.66-0.028-1.284-0.069-1.891H422.214z M264.727,275.79h-4.75v3.687h4.766L264.727,275.79z M413.22,282.627h-8.525v2.799
			h8.525V282.627z M395.565,296.426c-1.739-0.605-3.53-1.059-5.376-1.362c-1.846-0.303-3.696-0.454-5.552-0.454
			c-4.141,0-7.354,0.879-9.639,2.637c-0.034,0.026-0.062,0.056-0.095,0.082h20.662V296.426z M259.977,291.153v0.222h4.75v-0.222
			c0.708,0.047,1.388,0.126,2.055,0.222h8.221v-4.199h-24.307c-0.128,0.114-0.265,0.219-0.388,0.339
			c-1.133,1.1-1.983,2.387-2.556,3.86H258.9C259.235,291.281,259.589,291.203,259.977,291.153z M259.977,297.328h4.75v-4.203
			h-4.75V297.328z M323.024,294.609c-1.446,0-2.666,0.333-3.662,0.996c-0.634,0.422-1.188,1.008-1.679,1.723h11.078
			C327.653,295.522,325.747,294.609,323.024,294.609z M314.909,295.796c-1.094-0.791-2.305-1.187-3.633-1.187
			c-1.329,0-2.53,0.376-3.604,1.128c-0.623,0.436-1.136,0.974-1.562,1.591h10.237
			C316.003,296.764,315.534,296.249,314.909,295.796z M347.091,282.627h-8.584v2.799h8.584V282.627z M266.427,310.973
			c0.639,0.303,1.186,0.691,1.619,1.187c0.697,0.798,1.063,1.811,1.133,3.017h8.952c-0.011-1.523-0.204-2.921-0.569-4.203H266.427
			z M275.002,293.125h-2.172c0.762,0.355,1.486,0.753,2.172,1.195V293.125z M259.959,333.023h4.786l0.014-4.199h-4.814
			L259.959,333.023z M268.029,318.965c-0.787,0.888-1.887,1.432-3.302,1.634v-3.677h-4.75v3.677
			c-1.909-0.022-3.948-0.404-6.115-1.146c-1.812-0.62-3.679-1.472-5.592-2.531h-1.129v4.203h29.714
			c0.63-1.274,1.028-2.674,1.189-4.203h-8.999C268.866,317.701,268.539,318.389,268.029,318.965z M384.462,329.062
			c1.338,0,2.562-0.086,3.698-0.238h-7.74C381.788,328.979,383.137,329.062,384.462,329.062z M422.507,327.074h8.525v-4.199
			h-8.525V327.074z M264.727,315.176v-4.203h-4.75v4.203H264.727z M347.091,287.176h-8.584v4.199h8.584V287.176z M422.507,321.125
			h8.525v-4.203h-8.525V321.125z M270.801,303.277c-1.728-0.817-3.747-1.415-6.074-1.781v-2.422h-4.75v1.613
			c-1.253-0.343-2.212-0.888-2.911-1.613h-9.975c0.276,1.57,0.816,2.972,1.623,4.203H270.801z M274.75,306.028
			c-0.346-0.356-0.726-0.687-1.123-1.004H250.15c1.938,1.908,4.787,3.307,8.535,4.203h18.238
			C276.379,308.037,275.662,306.966,274.75,306.028z M269.73,284.381c-1.718-0.314-3.375-0.517-4.969-0.606l-0.011-2.548h-4.773
			v2.548c-2.598,0.168-4.831,0.719-6.7,1.651h20.767C272.582,285.002,271.139,284.64,269.73,284.381z M413.22,287.176h-8.525
			v4.199h8.525V287.176z M347.091,293.125h-8.584v4.203h8.584V293.125z M435.778,342.363h36.123v-1.641h-36.123V342.363z
			 M421.628,294.609c-2.07,0-3.838,0.498-5.303,1.494c-0.517,0.351-0.96,0.771-1.369,1.225h13.38
			C426.764,295.523,424.534,294.609,421.628,294.609z M361.301,316.922h-8.902l2.462,4.203h9.122L361.301,316.922z
			 M422.507,315.176h8.525v-4.203h-8.525V315.176z M413.22,293.125h-8.525v4.203h8.525V293.125z M429.507,299.074h-15.768
			c-0.198,0.393-0.372,0.807-0.52,1.248v-1.248h-8.525v4.203h10.149c0.85-1.089,1.967-1.637,3.356-1.637
			c1.523,0,2.622,0.508,3.296,1.523c0.023,0.035,0.043,0.077,0.065,0.113h9.213C430.531,301.648,430.108,300.247,429.507,299.074z
			 M299.088,309.227h7.031v-2.078c0-0.798,0.022-1.5,0.062-2.125h-7.093V309.227z M299.088,315.176h7.031v-4.203h-7.031V315.176z
			 M347.091,299.074h-8.584v4.203h8.584V299.074z M299.088,321.125h7.031v-4.203h-7.031V321.125z M372.099,321.125h3.36
			c-1.131-0.455-2.252-0.985-3.36-1.613V321.125z M355.382,307.646l2.661-2.623h-9.53l-1.422,1.539v-1.539h-8.584v4.203h17.883
			L355.382,307.646z M357.504,310.973h-18.998v4.203h9.103l2.411-2.314l1.356,2.314h8.811L357.504,310.973z M390.748,309.227
			c-0.627-0.217-1.293-0.414-2.008-0.584l-2.461-0.586l-0.322-0.088c-3.378-0.789-5.367-1.773-6.015-2.945h-8.356
			c0.047,1.605,0.38,3.007,1,4.203H390.748z M404.694,315.176h8.525v-4.203h-8.525V315.176z M404.694,309.227h8.535
			c0.019-1.651,0.244-3.052,0.675-4.203h-9.21V309.227z M381.151,301.685c0.977-0.557,2.421-0.835,4.336-0.835
			c1.718,0,3.432,0.259,5.142,0.776c1.321,0.4,2.604,0.954,3.85,1.651h1.087v-4.203h-22.336c-0.862,1.193-1.391,2.592-1.575,4.203
			h8.17C380.026,302.614,380.46,302.079,381.151,301.685z M404.694,321.125h8.525v-4.203h-8.525V321.125z M372.099,327.012
			c0.069,0.022,0.138,0.041,0.207,0.062h21.349c0.284-0.172,0.558-0.352,0.812-0.546c1.244-0.948,2.126-2.172,2.672-3.653h-25.041
			V327.012z M404.694,327.074h8.525v-4.199h-8.525V327.074z M299.088,327.074h7.031v-4.199h-7.031V327.074z"/>
	</g>
</svg>
