/* XPM */
static char *Daemon1[] = {
/* width height num_colors chars_per_pixel */
"    48    48       29            1",
/* colors */
". c #181410",
"# c #382430",
"a c #412430",
"b c #491828",
"c c #493030",
"d c #612028",
"e c #612030",
"f c #692c30",
"g c #792820",
"h c #796979",
"i c #8e2418",
"j c #a61410",
"k c #a62420",
"l c None",
"m c #b6b2b6",
"n c #dfe7ef",
"o c grey89",
"p c white",
"q c grey76",
"s c grey64",
"t c grey51",
"u c magenta4",
"v c grey39",
"w c grey13",
"x c grey4",
"y c grey26",
"z c blue4",
"1 c turquoise4",
"2 c LimeGreen",
/* pixels */
"llllllllllllllllllllllllllllllllllllllllllllllll",
"llopppppppppppppppppppppppppppppppppppppppppoqll",
"loooooooooooooooooooooooooooooooooooooqoqqqqosxl",
"lpooooooooooooooooooodkoooooooooooooooooqqqqquxl",
"lpoooooooooooooooooiaooooooooooooogoqoqqqqqqquxl",
"lpoooooooooooooooog#doooooooooooooggooqqqqqqquxl",
"lpooooxxxxxxxxxxkkd#kxkgdgxxxxxxxxxigxxxxsqqsvxl",
"lpooooxvvvvvvvvgkkdadgigga##dvvvvvvgiavvvpqqsuxl",
"lpooooxvvvvvvvviiidggiigd#a#aavvvvkdiavvvpqssuxl",
"lpooooxvvvvvvvvjggknnkigkdggde#kddkiaeavvpqssvxl",
"lpooooxvvvvvvvviiiknkknniigggdgkkkideevvvpsssuxl",
"lpooooxvvvvvvvvdnnnninnnniiggggggg#bevvvvpsssvxl",
"lpooooxvvvvvvvvdnnniknnnniiggd#daaebbvvvvpsssuxl",
"lpooooxvvvvvvvdd##edkknnniiigaebbb#evvvvvpsssvxl",
"lpooooxvvvvvvvddeeaek#nnnkigdaebee#vvvvvvpssszxl",
"lpooooxvvvvvvgii##de##nnkkigdaeeaavvvvvvvpsssvxl",
"lpooooxvkkvvvjjgjjid#ennkkigdae#aavvvvvvvpsssvxl",
"lpooooxvkkvvvjjgjjid#ennkkigdae#aavvvvvvvpsssvxl",
"lpooooxvvakvvjigjjiddkk#iiggdaeeaavvvvvvvpsssvxl",
"lpooooxkvvk#viigggdddjjjjjggdeb#vvvvvvvvvpsssvxl",
"lpooooxi#vv#vdigiiiiijjkjiddaeedvvvvvvvvvpsssvxl",
"lpoodkxvv##avvvvdddiiiddddeaeedvvvvvvvvvvpsssvxl",
"lpooo#xvvv#alkgivvdddddddd#eekvvvvvvvvvvvpsssvxl",
"lpooooaad##aajjivvvdgig###ebevvvvvvvvvvvvpsssvxl",
"lpooooxvvvvvdddavvvkgiiiiig#avvvvvvvvvvvvpsstvxl",
"lpooooxvvvvvgigeaaddikjiiji#evvvvvvvvvvvvpsstvxl",
"lpooooxvvvvvddadeeaijjgggdg##vvvvvvvvvvvvptttvxl",
"lpooooxvvvvvvggd##aijjii##geevvvvvvvvvvvvptttvxl",
"lpooooxvvvvvvgda###ijjjig#eebkvvvvvvvvvvvptttyxl",
"lpooooxvvvvvvvvvdddiigdeeb##eivvvvvvvvvvvptttyxl",
"lpoooospppppppppkk#dddeaebeeeppppppppppppptttyxl",
"lpoooooqoqqqqqqqiijd#ebaeaaaesssssssssyyyytttyxl",
"lpoooqoqqqqqqqqqggjidaeaaabbessssssstty222qttyxl",
"lpoooqqqqqqqqqqqggjidaeaaabbesssssssttttqqqttyxl",
"lpstututuuuvvuvvkkijjgggdeaaakvvvyvyyyyyyyyyyyxl",
"llxxxxxxxxxxxxxxxxdiiigdebeaabxxxxxxxxxxxxxxxxxl",
"lllllllllllpvyyyywwdddaebbaaeadwwwwywyllllllllll",
"llllllllllpsvvvvvvvgiddgdae#a#eawyvvvvwlllllllll",
"lllllllllpottttt..gfmnh..gc##.e###tttttwllllllll",
"llllhmnnnnnmhhf.ffd.mf..ddhh.lldddeeeaklwlllllll",
"llllnhnnnnmm.nnnaaa.m...dd.c#ppppppa##a##kllllll",
"llllfhnnnmannnnnmmmhfffff#####sssssssssskddd#lll",
"llllll#..#.nhchmhhhc#c#####hhhsssssssssssplkidll",
"llllllllxxxmnmmmhhh#h#hhhhh#h.xxxxxxxxxxxlllig#l",
"llllllllllllllllll.....lllllllllllllllliillllle.",
"lllllllllllllllllllllllllllllllllllliikiiid#a...",
"lllllllllllllllllllllllllllllllllllllllid......l",
"lllllllllllllllllllllllllllllllllllllllillllllll"
};
